<svg xmlns="http://www.w3.org/2000/svg" viewBox="0 0 612 792" enable-background="new 0 0 612 792"><g><path fill="#FABC12" d="M0 0l612 612V429.4L182.6 0z"/><g enable-background="new" fill="#fff"><path d="M254.2 130.3l13.6 13.6c2 2 3.5 4.1 4.5 6.2 1 2.1 1.6 4.3 1.6 6.4.1 2.1-.3 4.2-1.1 6.2s-2.1 3.9-3.8 5.6l-.1.1c-1.9 1.9-4 3.3-6.2 4.1s-4.3 1-6.6.8c-2.2-.2-4.4-.9-6.5-2.1-2.1-1.1-4.1-2.7-6-4.5l-5.6-5.6-10 10-7.3-7.3 33.5-33.5zm-3.7 30c1.8 1.8 3.8 2.8 5.7 2.8 2 0 3.7-.6 5.1-2.1l.1-.1c1.7-1.7 2.4-3.4 2.2-5.4-.2-1.9-1.2-3.8-3.1-5.7l-5.7-5.7-10.2 10.2 5.9 6zM286 162.2l15.3 15.3c4.2 4.2 6.3 8.6 6.3 13.1 0 3.8-1.6 7.3-4.8 10.5l-.1.1c-2.7 2.7-5.6 4.2-8.6 4.6-3 .4-6-.1-8.9-1.4l-3.8 20.1-8.6-8.6 3.5-17.8-.1-.1-5.7-5.7-10.5 10.6-7.3-7.3 33.3-33.4zm-1.4 31c1.8 1.8 3.6 2.8 5.5 2.9s3.5-.5 4.9-2l.1-.1c1.6-1.6 2.3-3.3 2-5.1-.2-1.8-1.2-3.6-3.1-5.4l-7.3-7.3-9.6 9.6 7.5 7.4zM320.5 196.6l25.1 25.1-6.5 6.5-17.9-17.9-6.8 6.8 15.7 15.7-6.5 6.5-15.7-15.7-7 7 18.1 18.1-6.5 6.5-25.4-25.2 33.4-33.4zM349.6 225.7l8.1 8.1-14.8 32.2 32.2-14.8 7.9 7.9-47 20.2-6.5-6.5 20.1-47.1zM388.6 264.7l7.3 7.3-33.4 33.4-7.3-7.3 33.4-33.4zM404.2 280.4l25.1 25.1-6.5 6.5-17.8-17.8-6.8 6.8 15.7 15.7-6.5 6.5-15.7-15.7-7 7 18.1 18.1-6.5 6.5-25.4-25.4 33.3-33.3zM433.6 309.8l7.9 7.9-15.7 29.5L456 332l6.3 6.3-15.2 30.2 29.5-15.7 7.7 7.7-45 22.2-6.4-6.4 14.3-29.4-29.4 14.3-6.4-6.4 22.2-45z"/></g></g></svg>