<svg xmlns="http://www.w3.org/2000/svg" width="625" height="630" viewBox="-6 -6 625 630" enable-background="new -6 -6 625 630"><style type="text/css">.st0{fill:#FED107;}</style><path class="st0" d="M604.8 593.9c-10.9 14.5-29 25.3-47.1 25.3H54.3c-18.1 0-36.2-10.9-47.1-25.3-7.2-14.5-10.9-36.2 0-50.7L260.7 32.6C268 10.9 286.1 0 307.8 0c21.7 0 39.8 10.9 47.1 29l253.5 510.6c7.2 18.1 7.2 39.8-3.6 54.3zM344 478h-72.4v72.4H344V478zm0-253.5h-72.4c-47.1 43.5-7.2 108.6 0 217.3H344c7.3-108.6 43.5-166.6 0-217.3z"/></svg>