<?xml version="1.0" encoding="utf-8"?>
<!-- Generator: Adobe Illustrator 19.1.1, SVG Export Plug-In . SVG Version: 6.00 Build 0)  -->
<svg version="1.1" xmlns="http://www.w3.org/2000/svg" xmlns:xlink="http://www.w3.org/1999/xlink" x="0px" y="0px" width="176px"
	 height="32px" viewBox="-233 381 176 32" style="enable-background:new -233 381 176 32;" xml:space="preserve">
<style type="text/css">
	.st0{fill:none;}
	.st1{fill:none;stroke:#FFFFFF;}
	.st2{fill:#FFFFFF;}
	.st3{fill:#333333;stroke:#FFFFFF;}
	.st4{fill:url(#Ellipse4_1_);}
	.st5{fill:url(#SVGID_1_);}
	.st6{fill:url(#SVGID_2_);}
	.st7{fill:#A8A8B7;}
	.st8{display:none;fill:none;stroke:#B0B0B0;}
	.st9{font-family:'ArialMT';}
	.st10{font-size:10px;}
	.st11{fill:url(#SVGID_3_);}
	.st12{fill:url(#SVGID_4_);}
	.st13{fill:url(#SVGID_5_);}
	.st14{fill:url(#SVGID_6_);}
	.st15{fill:url(#SVGID_7_);}
	.st16{fill:url(#Polygon_3_);}
	.st17{fill:url(#SVGID_8_);}
	.st18{fill:url(#SVGID_9_);}
	.st19{fill:url(#Polygon_4_);}
	.st20{fill:url(#Polygon_5_);}
	.st21{fill:url(#SVGID_10_);}
	.st22{fill:url(#SVGID_11_);}
	.st23{fill:url(#SVGID_12_);}
	.st24{fill:url(#SVGID_13_);}
	.st25{fill:url(#SVGID_14_);}
	.st26{fill:url(#SVGID_15_);}
	.st27{fill:url(#SVGID_16_);}
	.st28{fill:url(#SVGID_17_);}
	.st29{fill:url(#SVGID_18_);}
	.st30{fill:url(#SVGID_19_);}
	.st31{fill:url(#SVGID_20_);}
	.st32{fill:url(#SVGID_21_);}
</style>
<g id="controls.fw-Page_x25_201">
	<path class="st0" d="z"/>
	<g id="BG">
	</g>
	<g id="controls">
		<path id="Line" class="st1" d="M-134.5,388.5h11"/>
		<path id="Line2" class="st1" d="M-134.5,384.5h11"/>
		<path id="Line3" class="st1" d="M-134.5,392.5h11"/>
		<path id="Ellipse" class="st2" d="M-125,392.5c0-0.8,0.4-1.5,1-1.5s1,0.7,1,1.5s-0.4,1.5-1,1.5S-125,393.3-125,392.5z"/>
		<path id="Ellipse2" class="st2" d="M-129,388.5c0-0.8,0.4-1.5,1-1.5c0.6,0,1,0.7,1,1.5s-0.4,1.5-1,1.5
			C-128.6,390-129,389.3-129,388.5z"/>
		<path id="Ellipse3" class="st2" d="M-125,384.5c0-0.8,0.4-1.5,1-1.5s1,0.7,1,1.5s-0.4,1.5-1,1.5S-125,385.3-125,384.5z"/>
	</g>
	<g id="backlight">
		<g id="off">
			<rect x="-150" y="402" class="st3" width="10" height="6"/>
		</g>
		<g id="on">
			
				<radialGradient id="Ellipse4_1_" cx="-448.8571" cy="755.6" r="0.5" gradientTransform="matrix(14 0 0 -10 6139 7945)" gradientUnits="userSpaceOnUse">
				<stop  offset="0" style="stop-color:#FFFFFF"/>
				<stop  offset="1" style="stop-color:#F2F2F2;stop-opacity:0.2"/>
			</radialGradient>
			<path id="Ellipse4" class="st4" d="M-152,389c0-2.8,3.1-5,7-5s7,2.2,7,5s-3.1,5-7,5S-152,391.8-152,389z"/>
			<rect x="-150" y="386" class="st3" width="10" height="6"/>
		</g>
	</g>
	<g id="loop">
		<g id="on2">
			
				<linearGradient id="SVGID_1_" gradientUnits="userSpaceOnUse" x1="-446.0833" y1="760.0112" x2="-446.0833" y2="757.436" gradientTransform="matrix(12 0 0 -11.125 5192 8838.125)">
				<stop  offset="0" style="stop-color:#FFFFFF"/>
				<stop  offset="1" style="stop-color:#C8C8C8"/>
			</linearGradient>
			<path class="st5" d="M-159.2,385.2c1.4,0.7,2.4,2.1,2.4,3.8c0,2.3-1.9,4.2-4.2,4.2s-4.2-1.9-4.2-4.2c0-1.7,1-3.1,2.4-3.8
				l-1.3-1.3c-1.7,1.1-2.9,3-2.9,5.1c0,3.3,2.7,6,6,6s6-2.7,6-6c0-2.2-1.2-4.1-2.9-5.1L-159.2,385.2z"/>
			
				<linearGradient id="SVGID_2_" gradientUnits="userSpaceOnUse" x1="-418.9" y1="718.2" x2="-418.9" y2="715.8125" gradientTransform="matrix(5 0 0 -5 1930 3974)">
				<stop  offset="0" style="stop-color:#FFFFFF"/>
				<stop  offset="1" style="stop-color:#C8C8C8"/>
			</linearGradient>
			<path class="st6" d="M-162,383h-5l5,5V383z"/>
		</g>
		<g id="off2">
			<path class="st7" d="M-159.2,401.2c1.4,0.7,2.4,2.1,2.4,3.8c0,2.3-1.9,4.2-4.2,4.2s-4.2-1.9-4.2-4.2c0-1.7,1-3.1,2.4-3.8
				l-1.3-1.3c-1.7,1.1-2.9,3-2.9,5.1c0,3.3,2.7,6,6,6s6-2.7,6-6c0-2.2-1.2-4.1-2.9-5.1L-159.2,401.2z"/>
			<path class="st7" d="M-162,399h-5l5,5V399z"/>
		</g>
	</g>
	<g id="cc">
		<rect x="-184" y="383" class="st8" width="14" height="12"/>
		<text transform="matrix(1 0 0 1 -184 398)" class="st2 st9 st10">cc</text>
		<path class="st1" d="M-178,388c-4.7-3.2-4.9,5.9,0,3"/>
		<path class="st1" d="M-173,388c-4.7-3.2-4.9,5.9,0,3"/>
		
			<linearGradient id="SVGID_3_" gradientUnits="userSpaceOnUse" x1="-448.8571" y1="762.4167" x2="-448.8571" y2="761.4167" gradientTransform="matrix(14 0 0 -12 6107 9532)">
			<stop  offset="0" style="stop-color:#FFFFFF"/>
			<stop  offset="1" style="stop-color:#C8C8C8"/>
		</linearGradient>
		<path class="st11" d="M-183,384h12v10h-12V384z M-184,383v12h14v-12H-184z"/>
		<rect x="-184" y="383" class="st0" width="14" height="12"/>
	</g>
	<g id="volume">
		<g id="no_x25_20sound">
			
				<linearGradient id="SVGID_4_" gradientUnits="userSpaceOnUse" x1="-418.9" y1="731.1667" x2="-418.9" y2="729.3125" gradientTransform="matrix(5 0 0 -6 1881 4771)">
				<stop  offset="0" style="stop-color:#FFFFFF"/>
				<stop  offset="1" style="stop-color:#C8C8C8"/>
			</linearGradient>
			<rect x="-216" y="386" class="st12" width="5" height="6"/>
			
				<linearGradient id="SVGID_5_" gradientUnits="userSpaceOnUse" x1="-407.25" y1="762.4167" x2="-407.25" y2="761.4167" gradientTransform="matrix(4 0 0 -12 1419 9532)">
				<stop  offset="0" style="stop-color:#FFFFFF"/>
				<stop  offset="1" style="stop-color:#C8C8C8"/>
			</linearGradient>
			<path class="st13" d="M-212,386l4-3v12l-4-2.9V386z"/>
		</g>
		<g id="sound_x25_20bars">
			
				<linearGradient id="SVGID_6_" gradientUnits="userSpaceOnUse" x1="-418.9" y1="731.1667" x2="-418.9" y2="729.3125" gradientTransform="matrix(5 0 0 -6 1881 4787)">
				<stop  offset="0" style="stop-color:#FFFFFF"/>
				<stop  offset="1" style="stop-color:#C8C8C8"/>
			</linearGradient>
			<rect x="-216" y="402" class="st14" width="5" height="6"/>
			
				<linearGradient id="SVGID_7_" gradientUnits="userSpaceOnUse" x1="-407.25" y1="762.4167" x2="-407.25" y2="761.4167" gradientTransform="matrix(4 0 0 -12 1419 9548)">
				<stop  offset="0" style="stop-color:#FFFFFF"/>
				<stop  offset="1" style="stop-color:#C8C8C8"/>
			</linearGradient>
			<path class="st15" d="M-212,402l4-3v12l-4-2.9V402z"/>
			<path class="st1" d="M-206,399c0,0,3.1-0.6,3,6s-3,6-3,6"/>
			<path class="st1" d="M-207,402c0,0,2-0.3,2,3c0,3.3-2,3-2,3"/>
		</g>
	</g>
	<g id="play_x2F_pause">
		<g id="play">
			
				<linearGradient id="Polygon_3_" gradientUnits="userSpaceOnUse" x1="-444.3182" y1="759.5455" x2="-444.3182" y2="758.5455" gradientTransform="matrix(11 0 0 -11 4663 8739)">
				<stop  offset="0" style="stop-color:#FFFFFF"/>
				<stop  offset="1" style="stop-color:#C8C8C8"/>
			</linearGradient>
			<path id="Polygon" class="st16" d="M-219,389.5l-11,5.5v-11L-219,389.5z"/>
		</g>
		<g id="pause">
			
				<linearGradient id="SVGID_8_" gradientUnits="userSpaceOnUse" x1="-387.8333" y1="762.4167" x2="-387.8333" y2="761.4167" gradientTransform="matrix(3 0 0 -12 935 9548)">
				<stop  offset="0" style="stop-color:#FFFFFF"/>
				<stop  offset="1" style="stop-color:#C8C8C8"/>
			</linearGradient>
			<rect x="-230" y="399" class="st17" width="3" height="12"/>
			
				<linearGradient id="SVGID_9_" gradientUnits="userSpaceOnUse" x1="-387.8333" y1="762.4167" x2="-387.8333" y2="761.4167" gradientTransform="matrix(3 0 0 -12 942 9548)">
				<stop  offset="0" style="stop-color:#FFFFFF"/>
				<stop  offset="1" style="stop-color:#C8C8C8"/>
			</linearGradient>
			<rect x="-223" y="399" class="st18" width="3" height="12"/>
		</g>
	</g>
	<g id="play_1_">
		
			<linearGradient id="Polygon_4_" gradientUnits="userSpaceOnUse" x1="-431.25" y1="759.5455" x2="-431.25" y2="758.5455" gradientTransform="matrix(11 0 0 -11 4663 8739)">
			<stop  offset="0" style="stop-color:#FFFFFF"/>
			<stop  offset="1" style="stop-color:#C8C8C8"/>
		</linearGradient>
		<path id="Polygon_1_" class="st19" d="M-75.3,389.5l-11,5.5v-11L-75.3,389.5z"/>
	</g>
	<g id="play_2_">
		
			<linearGradient id="Polygon_5_" gradientUnits="userSpaceOnUse" x1="-429.8182" y1="759.5455" x2="-429.8182" y2="758.5455" gradientTransform="matrix(-11 0 0 -11 -4793 8739)">
			<stop  offset="0" style="stop-color:#FFFFFF"/>
			<stop  offset="1" style="stop-color:#C8C8C8"/>
		</linearGradient>
		<path id="Polygon_2_" class="st20" d="M-59.5,384v11l-11-5.5L-59.5,384z"/>
	</g>
	<g id="fullscreen">
		<g id="enter_x25_201">
			
				<linearGradient id="SVGID_10_" gradientUnits="userSpaceOnUse" x1="-418.9" y1="718.2" x2="-418.9" y2="715.8125" gradientTransform="matrix(5 0 0 -5 1898 3974)">
				<stop  offset="0" style="stop-color:#FFFFFF"/>
				<stop  offset="1" style="stop-color:#C8C8C8"/>
			</linearGradient>
			<path class="st21" d="M-199,383h5l-5,5V383z"/>
			
				<linearGradient id="SVGID_11_" gradientUnits="userSpaceOnUse" x1="-418.9" y1="719.6" x2="-418.9" y2="717.2125" gradientTransform="matrix(5 0 0 -5 1898 3981)">
				<stop  offset="0" style="stop-color:#FFFFFF"/>
				<stop  offset="1" style="stop-color:#C8C8C8"/>
			</linearGradient>
			<path class="st22" d="M-199,395h5l-5-5V395z"/>
			
				<linearGradient id="SVGID_12_" gradientUnits="userSpaceOnUse" x1="-418.9" y1="718.2" x2="-418.9" y2="715.8125" gradientTransform="matrix(5 0 0 -5 1905 3974)">
				<stop  offset="0" style="stop-color:#FFFFFF"/>
				<stop  offset="1" style="stop-color:#C8C8C8"/>
			</linearGradient>
			<path class="st23" d="M-187,383h-5l5,5V383z"/>
			
				<linearGradient id="SVGID_13_" gradientUnits="userSpaceOnUse" x1="-418.9" y1="719.6" x2="-418.9" y2="717.2125" gradientTransform="matrix(5 0 0 -5 1905 3981)">
				<stop  offset="0" style="stop-color:#FFFFFF"/>
				<stop  offset="1" style="stop-color:#C8C8C8"/>
			</linearGradient>
			<path class="st24" d="M-187,395h-5l5-5V395z"/>
		</g>
		<g id="exit">
			
				<linearGradient id="SVGID_14_" gradientUnits="userSpaceOnUse" x1="-407.25" y1="699.25" x2="-407.25" y2="696.2656" gradientTransform="matrix(4 0 0 -4 1440 3196)">
				<stop  offset="0" style="stop-color:#FFFFFF"/>
				<stop  offset="1" style="stop-color:#C8C8C8"/>
			</linearGradient>
			<path class="st25" d="M-191,403h4l-4-4V403z"/>
			
				<linearGradient id="SVGID_15_" gradientUnits="userSpaceOnUse" x1="-407.25" y1="699.25" x2="-407.25" y2="696.8625" gradientTransform="matrix(4 0 0 -4 1432 3196)">
				<stop  offset="0" style="stop-color:#FFFFFF"/>
				<stop  offset="1" style="stop-color:#C8C8C8"/>
			</linearGradient>
			<path class="st26" d="M-195,403v-4l-4,4H-195z"/>
			
				<linearGradient id="SVGID_16_" gradientUnits="userSpaceOnUse" x1="-407.25" y1="701.25" x2="-407.25" y2="698.25" gradientTransform="matrix(4 0 0 -4 1432 3204)">
				<stop  offset="0" style="stop-color:#FFFFFF"/>
				<stop  offset="1" style="stop-color:#C8C8C8"/>
			</linearGradient>
			<path class="st27" d="M-195,407h-4l4,4V407z"/>
			
				<linearGradient id="SVGID_17_" gradientUnits="userSpaceOnUse" x1="-407.25" y1="701.25" x2="-407.25" y2="698.1406" gradientTransform="matrix(4 0 0 -4 1440 3204)">
				<stop  offset="0" style="stop-color:#FFFFFF"/>
				<stop  offset="1" style="stop-color:#C8C8C8"/>
			</linearGradient>
			<path class="st28" d="M-191,407v4l4-4H-191z"/>
		</g>
	</g>
	<g id="stop">
		
			<linearGradient id="SVGID_18_" gradientUnits="userSpaceOnUse" x1="-442.2" y1="756.1" x2="-442.2" y2="755.1" gradientTransform="matrix(10 0 0 -10 4309 7945)">
			<stop  offset="0" style="stop-color:#FFFFFF"/>
			<stop  offset="1" style="stop-color:#C8C8C8"/>
		</linearGradient>
		<rect x="-118" y="384" class="st29" width="10" height="10"/>
	</g>
	<g id="stop_1_">
		
			<linearGradient id="SVGID_19_" gradientUnits="userSpaceOnUse" x1="-438.575" y1="756.1" x2="-438.575" y2="755" gradientTransform="matrix(10 0 0 -10 4309 7945)">
			<stop  offset="0" style="stop-color:#FFFFFF"/>
			<stop  offset="1" style="stop-color:#C8C8C8"/>
		</linearGradient>
		<rect x="-78.3" y="384" class="st30" width="3" height="11"/>
	</g>
	<g id="stop_2_">
		
			<linearGradient id="SVGID_20_" gradientUnits="userSpaceOnUse" x1="-437.8" y1="756.1" x2="-437.8" y2="755" gradientTransform="matrix(10 0 0 -10 4309 7945)">
			<stop  offset="0" style="stop-color:#FFFFFF"/>
			<stop  offset="1" style="stop-color:#C8C8C8"/>
		</linearGradient>
		<rect x="-70.5" y="384" class="st31" width="3" height="11"/>
	</g>
	<g id="chooser">
		
			<linearGradient id="SVGID_21_" gradientUnits="userSpaceOnUse" x1="-447.8013" y1="765.2111" x2="-447.8013" y2="764.2111" gradientTransform="matrix(13.1648 0 0 -13.1648 5798.2119 10456.2695)">
			<stop  offset="0" style="stop-color:#FFFFFF"/>
			<stop  offset="0.9944" style="stop-color:#C8C8C8"/>
		</linearGradient>
		<path class="st32" d="M-97.8,387.2c1-0.4,2.2,0.1,2.6,1.1c0.4,1-0.1,2.2-1.1,2.6c-1,0.4-2.2-0.1-2.6-1.1
			C-99.3,388.7-98.8,387.6-97.8,387.2z M-99.7,382.4l2.7,2.6l2.7-2.6l0.1,3.8l3.8,0.1L-93,389l2.6,2.7l-3.8,0.1l-0.1,3.8L-97,393
			l-2.7,2.6l-0.1-3.8l-3.8-0.1l2.6-2.7l-2.6-2.7l3.8-0.1L-99.7,382.4z"/>
	</g>
	<path class="st0" d="z"/>
</g>
<g id="Layer_2">
</g>
</svg>
